<svg xmlns="http://www.w3.org/2000/svg" width="1280" height="832" style="display:block" viewBox="0 0 2048 1331"><path fill="#9f9d9d" d="M878.8 450c-.6-67-9.3-120 42.4-173.4 30.7-31.7 69.3-45 112.8-45.1l224.3-.2h61c21.3 0 41.4-1.1 62.2 3.7a157 157 0 0 1 74.7 42c30.5 30.1 45 68.2 45.1 110.8v112.1c0 69.7 7.1 119.3-46.8 174.6-28.6 29.3-62.2 40.1-102.3 42.6a110 110 0 0 0 48.1 67.5c5.6 3.6 15 6.4 19.7 10.6l.1 2.3c-3.1 3-7.8 2-12 1.9-64-.6-108.7-26.7-133.5-86.5q-62.3-.5-124.7-.2l.1 62.5c.1 50.9-2.4 84.2-41 123.6-45.3 46.2-94.4 45.8-154.1 45-65.8-.7-133 1.3-198.9-.5-4.7 11.2-23.9 30.3-34.1 37.5a140 140 0 0 1-100.7 25.1c34.4-14 55.8-32.2 73.6-65-3.9-2-16.4-4.2-21.5-5.6-26.7-7.4-75.4-36.3-88.7-60.5a98 98 0 0 1-17-30.1c-5-11.4-12-26.2-14.5-38.1-5.4-26-4-56-4-82.7V621.5c-.3-12.5-1-25.6.3-38.1C556.9 508.6 622 450.8 697 450c60.3-.6 121.2-.4 181.8-.1"/><path fill="#0d1b3e" d="m902.5 455.1 65.9-.2c28.5 0 50.6-1.1 78 8.2 61.2 21 99.7 77.9 98.3 142.4-.6 33 .5 67.5 0 101H1115l.2 7-.2 1.6c.1 27 1.5 58.8-2.6 85a144 144 0 0 1-116.3 109.4c-16.2 2.6-34.2 2-50.7 2.1-58.8.6-117.8-.9-176.6 0a86 86 0 0 1-8.4 25.3c-2.5 2.6-2.8 3.2-4.4 6.4-4.7 11.2-23.9 30.3-34.1 37.5a140 140 0 0 1-100.7 25.1c34.4-14 55.8-32.2 73.6-65-3.9-2-16.4-4.2-21.5-5.6-26.7-7.4-75.4-36.3-88.7-60.5a98 98 0 0 1-17-30.1c-5-11.4-12-26.2-14.5-38.1-5.4-26-4-56-4-82.7V621.5c1.3-10.8 3.6-24.4 6.5-34.9l2-5.8a142 142 0 0 1 34.5-51c52.4-50.5 103.3-43.2 170-43.2q57-.2 113.7.4H897l4 .1 1.3-.1q.5-15.9.3-31.9"/><path fill="#fbfaf7" d="M584.6 874.8c0-5.2-5.6-8.8-5.1-11.1h.4l-.2-.2c3 2.6 2.2 4 6.4 4 1.8 1.8 4 3.8 5.4 5.8.9 4 3.5 5.6 6.4 8.6l2.4-1c34 27.1 64.8 31.3 106.6 30.6l-9.7 24.1-2.4 5.2c-3.9-1.9-16.4-4.1-21.5-5.5-26.7-7.4-75.4-36.3-88.7-60.5"/><path fill="#9f9d9d" d="M584.6 874.8c0-5.2-5.6-8.8-5.1-11.1h.4l-.2-.2c3 2.6 2.2 4 6.4 4 1.8 1.8 4 3.8 5.4 5.8.9 4 3.5 5.6 6.4 8.6 34 33 53.8 42 99.3 53.7l-2.4 5.2c-3.9-1.9-16.4-4.1-21.5-5.5-26.7-7.4-75.4-36.3-88.7-60.5"/><path fill="#959598" d="M567.6 844.7c3.4 3.3 15.2 18.4 18.5 22.9-4.2-.1-3.4-1.5-6.4-4h.2-.4c-.5 2.4 5 6 5 11.2a98 98 0 0 1-16.9-30.1"/><path fill="#e7e9f0" d="m591.5 873.3 8.8 7.5-2.4 1.1c-3-3-5.5-4.6-6.4-8.6"/><path fill="#2f6bff" d="m710.5 908.8-8.5.1c-88.8 1.2-149-54.1-149.8-143.9l-.2-88c0-57-3.5-98.4 40.1-143.2 50.2-51.5 110.6-44.5 176.4-44.5h115.7l.2 10.5c-.2 65-8.7 120.5 41.1 170 39 38.8 78.8 42.5 131 41 8.6-.1 52.2-1 56.4 1.8l.8 2c-1.3 6.5-.9 15-1 21.8-.3 19.8 1.6 42.4-3 61.8-9.2 37.7-30 69.2-63.6 89.5q-22.4 13.6-48.2 18.7c-23.7 4.4-67.7 3-93.1 3l-138.5-.6a120 120 0 0 1-10.2 29.5c-11.6 0-45.3 1-54.9-2.2a198 198 0 0 0 9.3-27.3M698.7 941c17 2.7 37 2 54.4 2.3-32.2 41.5-62.9 59.2-116 60.8 29.8-17.4 44.6-33 61.6-63.1"/><path fill="#fbfaf7" d="M1115.2 713.5c4.6-1.6 22.9-.9 29-.8l-.1 63.6c-.1 49.9-2 80.9-40.4 119.1a143 143 0 0 1-62.6 37c-27.7 7.5-78 5.5-108.7 5.5H825.7c-11.7-.1-55.2.4-65.3-1a86 86 0 0 0 8.4-25.3c58.8-.9 117.8.6 176.6 0 16.5-.1 34.5.5 50.7-2.1a143 143 0 0 0 116.3-109.3c4.1-26.3 2.7-58.1 2.6-85.1zM555.6 578.8a146 146 0 0 1 108.6-119c26.5-7.1 68.8-4 97.2-4l117.4.2c.2 8.9.7 20.2-.5 29-.1 1-1.3 1.3-2.5 2q-56.8-.6-113.6-.4c-66.8 0-117.7-7.3-170 43.2a142 142 0 0 0-34.5 51zm329-122.8h12.5c0 10 .2 21-.2 31h-12c-.7-7.8-.2-22.6-.3-31"/><path fill="#e7e9f0" d="m555.6 578.8 2 2-2 5.8c-1.8-2.2-.6-5 0-7.8"/><path fill="#0d1b3e" d="M1035.6 280.4c6.6-1 29.4-.6 36.9-.6h72.1l117.4-.1c20 0 51.3-.8 69.9 1.5 18.4 2.4 36.3 8.2 52.5 17.3 68.1 37.9 79.3 100.8 74.7 172.8-3.5 53.8 10 112.4-18.5 162-21.9 37.9-54.4 58.3-95.7 69.7 4.6 43 23.5 68.3 59.4 90.4-5.5-.1-10-.4-15.5-1-55.1-5.3-91.3-33.6-110.6-85.4l-127.9-.2c-.2-29.1-.6-65 .6-94 3.6-81.6-49.2-148.8-130.4-161.5-14.5-2.3-33.2-1.6-48.5-1.7q-34.8 0-69.5.2c.3-47 .9-77.2 32.8-116a150 150 0 0 1 100.3-53.4"/><path fill="#fbfaf7" d="M1021.8 237.4c17-1.1 45.7-.3 63.3-.2h122.5l100.2-.1c50.7 0 87.3-2.1 129.4 31.3 29.5 23.3 53.7 60 57 98.2 2.7 28.8 1.5 60.5 1.5 89.5v71.8c0 20.6.8 45.6-3.5 65.4-4.9 23-15 44.6-29.5 63a142 142 0 0 1-101.5 55.3c-4.5.5-7.7 1.4-11.1-1.3.4-5 5.3-4.7 11.1-6.5a158 158 0 0 0 62.3-38.8c35.4-37 40.5-72.8 40.3-120.7.1-34 0-67.4-1.6-101.4-.7-14.8 2-25.6-.3-42.2a139 139 0 0 0-55-93.9 156 156 0 0 0-68.4-30.1c-21-3.8-49-2.4-70.9-2.4H1086c-17.9-.2-39.5-.9-56.8 1.3a150.5 150.5 0 0 0-130 127c-2.4 15.5-1.4 29.9-2.4 45.3l-1.6 2c-3 1-8.2 1.3-10.3-1.4-.2-60-8.9-109.2 33.4-159.8 26.2-31.3 63.3-47.9 103.6-51.3"/><path fill="#9f9d9d" d="M1220.2 836.1c19.2-.9 17.4 11 17.5 25.8h65c0-8.4-1-16 5-22.7 5-5.5 12.2-5.3 17.2 0 6.3 6.8 5.3 14.1 5.3 22.7h.7c40-.5 45 11.5 44.4 49 40.4-7.5 81.4 5.6 104.5 41a93 93 0 0 1 13.3 70.5 97 97 0 0 1-45 61.7 101 101 0 0 1-73.3 10.5c-30-7.4-48.4-25-63.9-50.4h-84.6c-32.5.1-69.3 8.5-69.6-35.1l.1-85.9c0-17.3-3.7-40.5 9.4-52.8 11.7-11 29.1-8.8 43.8-8.7 0-13.4-2.5-18.5 10.2-25.6"/><path fill="#fbfaf7" d="M1392.1 913.8a89.5 89.5 0 1 1 12.6 178.6 89.5 89.5 0 0 1-12.6-178.6"/><path fill="#9f9d9d" d="M1393.2 942.3c.5 0 5.1.7 5.2 1.2 1.1 17.9.4 41.6.6 59.1 16.6.2 35.7-.4 52.4.3.7 0 1.3 3.9 1.4 4.5l.3.9H1393c-.2-19-.8-47.5.2-66"/><path fill="#fbfaf7" d="M1162.4 925.1q90 0 180 .6a101 101 0 0 0-37.3 51.6c-33.7 0-68.5-.5-102.1.2v30.4c32.4.5 66.2 0 98.6 0 1 9.4 4.2 21.6 6.6 30.5-36 1.5-73.2-1.2-109.4.3-12.4.5-33.5-1.2-34.9-18-2.5-31.2-1.4-64.1-1.5-95.6m167.8-58.1c22.1-.2 36.4 1.2 39.5 26.9.3 6.1 0 13-.1 19.3-3.7 1.5-13.7 5.9-17 6-19.6 1-41.1.4-60.7.4l-129.6-.1c-.3-23.6-4.4-47.7 25.4-52.2 6.7-.3 15.4 0 22.3 0-.2 8.2-1.2 15.3 4.7 22 4.7 5.3 11.7 6 17 1 6.7-6.8 6.1-13.8 6-22.6q32.6-.6 65.2-.2-.2 5.5 0 11c.4 10.6 11.9 22.1 21.4 12.4 7-7.1 6-14.9 6-23.8"/><path fill="#e7e9f0" d="m1209.2 984 94 .1a127 127 0 0 0-1.4 17.5c-28.5.7-64.1.6-92.6-.2z"/><path fill="#fbfaf7" d="M1313.6 841.8c13.4 1 9.7 4.8 10.5 16.7.3 3.5-1 3.4-3.8 3.4-11.5 0-12.8 2.6-12-10.4.5-5.4 1.1-6.3 5.3-9.7m-4 25.7 14.6-.2c0 8.7 1.2 11.9-3 19.1-8.8 1.6-12.6-1-12.5-10.6 0-3.1-.7-5.5 1-8.3m-88-25.8c15.6 2 10.1 19.7 7.3 20-9.2-.1-13.5 2.4-12.5-7.7.7-7.3-.4-7 5.2-12.3m-4.7 26.1h14.8c-.1 6.4 0 10.3-1.9 16.6-15 8.1-13.1-7.5-13-16.6"/></svg>
