<svg xmlns="http://www.w3.org/2000/svg" width="1280" height="832" style="display:block" viewBox="0 0 2048 1331"><defs><linearGradient id="a" x1="1032.5" x2="950.4" y1="1165" y2="1062.6" gradientUnits="userSpaceOnUse"><stop class="stop0" offset="0" stop-color="#323564"/><stop class="stop1" offset="1" stop-color="#3c4c87"/></linearGradient></defs><path fill="#0d1b3e" d="m1162.5 985.8-.2-291.1v-87.3c0-15-.9-31.8.4-46.5 1.7-20.2 22.7-24.5 38.7-24.5q27.6.3 55.1.1c17.3-.1 45.2-4 58.5 8.5a28 28 0 0 1 7.6 14.1c1 14 .6 29.2.6 43.3v87.8l-.2 295.6c16.8 0 142.2-1.6 149.8 1.1-.6 1.4-.5 1.6-1.7 1.6-60.5.8-149.6.5-207.5.5H915.5l-116-.1c-19.8 0-42.2.4-61.8-.2-25.7.9-56.3.2-82.3 0-10.8.2-73 .9-79.7-1 6.4-2.9 76.6-2.4 89.1-1.9 12-1.1 36-.6 49-.7V873.3c-.1-15.3-.1-31-.3-46.2-.3-21 3-34 25.5-39.1q35.4-.5 71-.1c27.8 0 65-6.4 64.5 32.7q0 6.9-.4 13.8c0 21.7 1.5 62.3 0 82.6 1.5 19.9.8 48.4.8 68.6l63.2.1v-28.9c-2.7-83 1.8-168-.2-251-.4-15 6.6-31.7 23.5-33.1 22.5-1.9 47-1 69.8-.6l25.6-.1c20-1 36.1.9 41.6 23.4q.8 100.7.3 201.3c0 25.8 1.6 66 0 89.5 18.3-1.1 44.8-.6 63.8-.4"/><path fill="#374476" d="M938 956.8c-2.6-83 1.9-168-.1-251-.4-15 6.6-31.7 23.5-33.1 22.5-1.9 47-1 69.8-.6l-1.3.2c-15.7 1.3-70.1-2.3-80.6 10.7-3.3 4-5.5 9-6.2 14.1-1.7 13.7-.6 57.6-.6 74q.3 77.9-.3 155.9c0 6 .8 35 0 37.7-.8 5.8-1 10.8-1.2 16.6-1.3-7.8 0-19-3-24.5"/><path fill="#293d72" d="M713.7 985V873.4c0-15.3 0-31-.2-46.2-.3-21 3-34 25.5-39.1l.7 3.7c-14.8 4.6-21.8 11.4-22 27.4-.6 55.1 1.1 110.7 0 165.8h11.5c3.2 2.4 3.7 2.5 7.6 3l.9.8c-25.7.9-56.3.2-82.3 0-10.8.2-73 .9-79.7-1 6.4-2.9 76.6-2.4 89.1-1.9 12-1.1 36-.6 49-.7"/><path fill="#0d1b3e" d="M655.4 988.7c-10.8.2-73 .9-79.7-1 6.4-2.9 76.6-2.4 89.1-1.9l1.2.2c15.1 1.5 31.2-.8 47 1.2-10.3.6-51.7-.4-57.6 1.5"/><path fill="#293d72" d="m1093 690 5.4 5.4q.8 100.7.3 201.3c0 25.8 1.6 66 0 89.5l-2-.2c-1.8-3-.9-50.1-1.7-58.3-1-15.3-.1-42.6-.1-58.5l.1-112c0-14.9 1.1-54.7-2-67.2"/><path fill="#374476" d="M739 788q35.4-.5 71-.1c27.8 0 65-6.4 64.5 32.7q0 6.9-.4 13.8c-7-6.5.8-25-10-34.5-18.8-16.4-62.7-9.8-85.9-9-13.4.6-25.7.6-38.5.8zm317.8-116c20-1 36.1.9 41.6 23.4-2.2-2-3.4-3.3-5.4-5.4-15.7-22.4-28.4-10-36.2-18"/><path fill="#2f6bff" d="m1192 540.2 65.3-.2c12.7 0 26.4-.7 38.8.8 10.4 1.2 21.8 8.6 22.9 20 1.5 16.2 1 33 1 49.4l-.1 82.5c0 97.4-.8 195.9.3 293.1l-25.7.2q-64.2.6-128.5 0V615c0-15.5-.3-31.1.2-46.7.5-17.8 9-25.1 25.8-28"/><path fill="#293d72" d="M816.1 985c15-.8 35.3-.1 50.6 0l-1.2.4c-2.9 1-5 2.9-8 2.6-5.3-.5-47 .8-48.7-.5.4-1.7 5.6-2 7.3-2.5"/><path fill="#2f6bff" d="m1177 270.2 25-6.1-29.5 110.2c-4.9 18.4-11.7 41.9-15.5 60a733 733 0 0 1-37.2-37.8c-34.5 30.6-68.3 65.2-102 96.7-13.4 12.6-32.6 32.5-45.8 43.4q-25.5-24.4-50-49.9-70.2 65.5-139.6 131.8c-7.6 7.2-63 61.8-68.6 62.1 3-7.4 29.1-30 36.4-37a5281 5281 0 0 1 78-73.9l238.3-224.9a1970 1970 0 0 0-39.6-39l50-12q50-12.1 100-23.6"/><path fill="#374476" d="m1177 270.2 25-6.1-29.5 110.2c-4.9 18.4-11.7 41.9-15.5 60a733 733 0 0 1-37.2-37.8c-34.5 30.6-68.3 65.2-102 96.7-13.4 12.6-32.6 32.5-45.8 43.4q-25.5-24.4-50-49.9-70.2 65.5-139.6 131.8c-7.6 7.2-63 61.8-68.6 62.1 3-7.4 29.1-30 36.4-37a5281 5281 0 0 1 78-73.9l238.3-224.9a1970 1970 0 0 0-39.6-39l50-12c4.7 1.5 6.6 1.4 11.6 1.4-4.5 1.1-12.4 3.3-16.7 3.8-.9.4-1 .5-1.8.5-6.9 2.5-27.1 6.6-34.8 8.2 6.3 7.7 28.5 28.5 36.8 37-22.3 23.7-49.1 45.2-72.2 68.2-24.4 24.4-50.5 47-75.3 70.9 15.7 14.5 32.5 32.5 47.5 48 15-16 34.4-33.6 50.3-48.9l97-92.5c10.8 11.9 23.5 24.5 34.7 36.2 15.5-49.7 26.9-106.6 43-157l-14.5 3.6z"/><path fill="#293d72" d="M1070 299.5c-.2-1.1-.7-2.3.5-3 1.3.2 1.2 1.5 1.3 2.5-.9.4-1 .5-1.8.5m6.8-5.7q50.1-12.1 100.2-23.6l5.5 3-62.6 14.7c-8.4 2-23.3 6-31.4 7.3-5 0-6.9 0-11.7-1.4"/><path fill="#e7e9f0" d="M1008.6 1196q-22 .6-44 .5c-36.8.3-67-28.3-65.6-65.7.6-16.5 7.9-32 20.1-43.1a64 64 0 0 1 27.1-14.7c20.5-5.1 90.5-3.2 115-2.2 38-5.2 81.3 8.8 87.7 51.5a62 62 0 0 1-23.9 61.4 61 61 0 0 1-31.3 12c-5.9.6-16.4.4-22.7.4-20 .2-42.6.7-62.4-.2"/><path fill="#0d1b3e" d="M1061.3 1070.8c37.8-5.2 81.2 8.8 87.6 51.5a62 62 0 0 1-23.9 61.4 61 61 0 0 1-31.3 12c2.2-1.3 6.3-2.8 7.2-3.4h.2c-1-.7-3-.9-4.3-1.2-27.7 3.5-43.2-3.7-60.5-24.6-13.1-18.2-12-35.1-6.5-55.7.5-5.5.4-5 1.7-10.8 4.9-10.4 16.7-16.2 25.1-22.5l3.3-.3q3.9.2 7.6.8c9.7-3 14.3-3.1 24.1-3.3-11.6-3.8-20.1-1.7-30.3-3.9"/><path fill="#374476" d="M1061.3 1070.8c37.8-5.2 81.2 8.8 87.6 51.5-1.5-1.1-4-4.7-5.3-6.3-9.7-25.2-25.9-36.9-52-41.3-11.6-3.8-20.1-1.7-30.3-3.9"/><path fill="#374476" d="M1143.6 1116c1.3 1.6 3.8 5.2 5.3 6.3a62 62 0 0 1-23.9 61.4c-4.2.9-4.6.8-8.9.9 23.5-19 33.9-38 27.5-68.6"/><path fill="#293d72" d="m1056.6 1077.5 3.3-.3q3.9.2 7.6.8c-20.5 7.9-26 14.9-37.7 32.8.5-5.5.4-5 1.7-10.8 4.9-10.4 16.7-16.2 25.1-22.5m59.5 107.1c4.3 0 4.7 0 9-.9a61 61 0 0 1-31.4 12c2.2-1.3 6.3-2.8 7.2-3.4h.2c-1-.7-3-.9-4.3-1.2 12.8-2.7 10.5-3.6 19.3-6.5"/><path fill="url(#a)" d="M1008.6 1196q-22 .6-44 .5c-36.8.3-67-28.3-65.6-65.7.6-16.5 7.9-32 20.1-43.1a64 64 0 0 1 27.1-14.7c20.5-5.1 90.5-3.2 115-2.2 10.3 2.2 18.8.1 30.4 3.9-9.8.2-14.4.3-24.1 3.3-2.7-.3-4.9-.7-7.6-.8l.8-2c-2.6-1.2-6.9-.6-10-.5-6.3-1.4-85.7-.8-91.8.2a61 61 0 0 0-42.1 21 58 58 0 0 0-13.3 42.6 57 57 0 0 0 20.2 39.2c25.8 21.6 53.6 13.8 84 15.4-2.5 2-5.9.8-8.9 1.4 3.2.6 7 .7 9.8 1.4"/><path fill="#374476" d="M1031.5 1100c-1.3 5.8-1.2 5.3-1.7 10.8-5.5 20.6-6.6 37.5 6.5 55.7 17.3 20.9 32.8 28 60.5 24.6 1.2.3 3.2.5 4.3 1.2h-.2c-1 .6-5 2-7.2 3.5-5.9.5-16.4.3-22.7.3-20 .2-42.6.7-62.4-.2-2.7-.7-6.6-.8-9.8-1.4 3-.6 6.4.6 9-1.4l6.6-.3c13.4.1 27-.5 40.6-.4l6.3-.7-6.3-2.8a64 64 0 0 1-25.7-25.8c-3.7-7.5-5-11.6-7.3-19.5a89 89 0 0 1 0-22 68 68 0 0 1 9.5-21.6m14-961.8c24.3-2.5 36.3 8.6 41.7 31.4 18.5 3.6 33.7 5.5 52 10.9A297 297 0 0 1 1314 320.8a297 297 0 0 1 35.2 114.8c.5 4.7 2.7 21-1.6 23.2-2.7-3.6-1.5-11.1-1.8-16.3q-1.3-20-5.4-39.7c-8.4-39.5-25-76.8-48.6-109.6a297 297 0 0 0-139-104.4 361 361 0 0 0-65.9-15.5c-2.4 12.5-5 18-14.9 25.8-25.7 12.6-46.5 1.8-54-25.3a307 307 0 0 0-91.6 30.6 289 289 0 0 0-145.2 189.8 301 301 0 0 0-5.8 37c-.6 7-.5 20.9-2.3 26.7l-1.2.6q-1.4-1.5-1.2-3.6c-.9-113 71.3-220.4 175.2-264.1 21.4-9 49.4-17.9 72.6-20.5 1.3-17.6 10.8-26.8 27-32"/><path fill="#2f6bff" d="M1046 142.1a29.8 29.8 0 1 1 13.9 58 29.8 29.8 0 0 1-13.9-58"/><path fill="#e7e9f0" d="M1163.3 498c37.2-1 75.3.8 112.6 0 13.3-.4 29.8-.7 43 .3 3 1.9 2 .9 3.6 4.2 0 3.3 0 3.7-1.7 6.6a3021 3021 0 0 1-155.8-.1c-1.4-.5-2-1-2.7-2.2-1.3-2.7.2-6.1 1-8.8M716.1 745.1c49.5-1.5 100.6.5 150.2-.2 4 0 6-.2 7.9 3.6-.1 3.7-.2 4.2-2.5 7.1q-9.2.5-18.5.2c-45.2-.5-90.5.8-135.7 0-1.9-.1-2.8-2.5-3.5-3.8-.1-3.5.2-4 2.1-6.9m224.5-113.9c48.7-1.7 98.2 1 147-.6 5.6-.2 10.8.7 11.3 6.8-1.8 3.5-.7 2.3-4.4 4.2-50.2 1.2-102-1.1-152.4 0-2 0-3.2-2.1-4-3.7 0-3.4.4-3.9 2.5-6.7"/></svg>
